# xmcd
#
# Track frame offsets:
#	150
#	14431
#	25225
#	36062
#	50837
#	65764
#	76953
#	91226
#	103540
#	113718
#	124380
#	136338
#	149547
#	161134
#	173434
#	186916
#	199592
#	214101
#	225500
#	236466
#	248511
#	261515
#	273871
#	285255
#
# Disc length: 3966 seconds
#
# Revision: 1
# Processed by: cddbd v1.5.1PL0 Copyright (c) Steve Scherf et al.
# Submitted via: audiograbber 1.83.01
#
DISCID=510f7c18
DTITLE=Bill Boyd - The Golden Age Of Bill Boyd
DYEAR=2000
DGENRE=Western Swing
TTITLE0=The Train Song
TTITLE1=These Tears Are Not For You
TTITLE2=Can't Use Each Other
TTITLE3=Over the Waves Waltz
TTITLE4=Broadway Mama
TTITLE5=Blues When It Rains
TTITLE6=Homecoming Waltz
TTITLE7=I Need One Sweet Letter From You
TTITLE8=Mississippi Mud
TTITLE9=Jig
TTITLE10=I Love My Baby 
TTITLE11=Never Let You Cry
TTITLE12=American Patrol
TTITLE13=You Take It
TTITLE14=My Birmingham Rose
TTITLE15=Jungle Town
TTITLE16=When It's Twilight In Sweetheart Lane
TTITLE17=Tumbleweed Trail
TTITLE18=I Want To Go Back
TTITLE19=Boyd's Blues
TTITLE20=There's a Light Shining Bright
TTITLE21=Home In Indiana
TTITLE22=If You'll Come Back
TTITLE23=You Better Stop That Cattin' Around
EXTD=
EXTT0=
EXTT1=
EXTT2=
EXTT3=
EXTT4=
EXTT5=
EXTT6=
EXTT7=
EXTT8=
EXTT9=
EXTT10=
EXTT11=
EXTT12=
EXTT13=
EXTT14=
EXTT15=
EXTT16=
EXTT17=
EXTT18=
EXTT19=
EXTT20=
EXTT21=
EXTT22=
EXTT23=
PLAYORDER=
